<?xml version="1.0" encoding="iso-8859-1"?>
<!-- Generator: Adobe Illustrator 19.0.0, SVG Export Plug-In . SVG Version: 6.00 Build 0)  -->
<svg version="1.1" id="Layer_1" xmlns="http://www.w3.org/2000/svg" xmlns:xlink="http://www.w3.org/1999/xlink" x="0px" y="0px"
	 viewBox="0 0 512 512" style="enable-background:new 0 0 512 512;" xml:space="preserve">
<path style="fill:#FFD34E;" d="M428.463,308.045V451.87c0,5.717-2.271,11.2-6.314,15.244L391.661,497.6
	c-4.043,4.043-9.526,6.314-15.244,6.314h-88.081v-27.872c0-2.859,1.136-5.601,3.157-7.622l36.801-36.801
	c2.021-2.021,3.157-4.763,3.157-7.622v-49.429c0-23.812-19.304-43.116-43.116-43.116h-32.337h-32.337
	c-23.812,0-43.116,19.304-43.116,43.116v49.43c0,2.859,1.136,5.601,3.157,7.622l36.801,36.801c2.021,2.021,3.157,4.763,3.157,7.622
	v27.872h-88.081c-5.717,0-11.2-2.271-15.244-6.314l-30.487-30.487c-4.043-4.043-6.314-9.526-6.314-15.244V308.045
	c0-5.717,2.271-11.2,6.314-15.244l52.045-52.045c4.043-4.043,9.526-6.314,15.244-6.314h98.86h98.86c5.717,0,11.2,2.271,15.244,6.314
	l52.045,52.045C426.191,296.845,428.463,302.328,428.463,308.045z M180.547,137.432h150.905c11.906,0,21.558-9.651,21.558-21.558
	V29.642c0-11.906-9.651-21.558-21.558-21.558H180.547c-11.906,0-21.558,9.651-21.558,21.558v86.232
	C158.989,127.78,168.64,137.432,180.547,137.432z"/>
<path style="fill:#FFB933;" d="M428.463,308.045V451.87c0,5.717-2.271,11.2-6.314,15.244L391.661,497.6
	c-4.043,4.043-9.526,6.314-15.244,6.314h-56.051l51.438-51.806c1.769-1.769,2.763-4.167,2.763-6.669V311.781
	c0-2.502-0.994-4.9-2.763-6.669l-71.925-70.67h54.978c5.717,0,11.2,2.271,15.244,6.314l52.045,52.045
	C426.191,296.845,428.463,302.328,428.463,308.045z M353.01,115.874V29.642c0-11.906-9.651-21.558-21.558-21.558h-43.116v129.347
	h43.116C343.358,137.432,353.01,127.78,353.01,115.874z"/>
<path style="fill:#FF9600;" d="M169.768,309.895c0,11.906-9.651,21.558-21.558,21.558c-11.906,0-21.558-9.651-21.558-21.558
	c0-11.906,9.651-21.558,21.558-21.558C160.116,288.337,169.768,297.988,169.768,309.895z M363.789,288.337
	c-11.906,0-21.558,9.651-21.558,21.558c0,11.906,9.651,21.558,21.558,21.558c11.906,0,21.558-9.651,21.558-21.558
	C385.347,297.988,375.695,288.337,363.789,288.337z"/>
<path style="fill:#BFBFBF;" d="M309.894,256v86.232c0,5.953-4.826,10.779-10.779,10.779h-86.232
	c-5.953,0-10.779-4.826-10.779-10.779V256c0-5.953,4.826-10.779,10.779-10.779h86.232C305.068,245.221,309.894,250.047,309.894,256z
	"/>
<g>
	<path style="fill:#999999;" d="M309.894,256v86.232c0,5.953-6.032,10.779-13.474,10.779h-40.421V245.221h40.421
		C303.862,245.221,309.894,250.047,309.894,256z"/>
	<path style="fill:#999999;" d="M320.673,148.211V256c0,5.953-4.826,10.779-10.779,10.779H202.105
		c-5.953,0-10.779-4.826-10.779-10.779V148.211c0-5.953,4.826-10.779,10.779-10.779h107.789
		C315.847,137.432,320.673,142.257,320.673,148.211z"/>
</g>
<path style="fill:#6D6D6D;" d="M320.673,148.211V256c0,5.953-4.826,10.779-10.779,10.779h-53.895V137.432h53.895
	C315.847,137.432,320.673,142.257,320.673,148.211z"/>
<path style="fill:#BFBFBF;" d="M326.063,142.821c0,38.694-31.369,70.063-70.063,70.063s-70.063-31.369-70.063-70.063
	s31.369-70.063,70.063-70.063S326.063,104.127,326.063,142.821z"/>
<path style="fill:#6D6D6D;" d="M229.052,142.821c0-14.882,12.065-26.947,26.947-26.947s26.947,12.065,26.947,26.947
	c0,14.883-12.065,26.947-26.947,26.947S229.052,157.704,229.052,142.821z M255.999,245.221c-14.883,0-26.947,12.065-26.947,26.947
	c0,14.883,12.065,26.947,26.947,26.947s26.947-12.065,26.947-26.947C282.947,257.286,270.882,245.221,255.999,245.221z"/>
<path style="fill:#BFBFBF;" d="M245.221,142.821c0-5.953,4.826-10.779,10.779-10.779c5.953,0,10.779,4.826,10.779,10.779
	c0,5.953-4.826,10.779-10.779,10.779C250.046,153.6,245.221,148.774,245.221,142.821z M255.999,261.389
	c-5.953,0-10.779,4.826-10.779,10.779c0,5.953,4.826,10.779,10.779,10.779c5.953,0,10.779-4.826,10.779-10.779
	C266.778,266.215,261.953,261.389,255.999,261.389z"/>
<path d="M220.968,142.821c0,19.316,15.716,35.032,35.032,35.032s35.032-15.716,35.032-35.032s-15.716-35.032-35.032-35.032
	S220.968,123.505,220.968,142.821z M274.863,142.821c0,10.401-8.463,18.863-18.863,18.863s-18.863-8.463-18.863-18.863
	s8.463-18.863,18.863-18.863S274.863,132.42,274.863,142.821z M320.673,49.583c-4.465,0-8.084-3.62-8.084-8.084v-1.078
	c0-4.465,3.62-8.084,8.084-8.084s8.084,3.62,8.084,8.084v1.078C328.757,45.964,325.138,49.583,320.673,49.583z M148.21,339.537
	c16.345,0,29.642-13.297,29.642-29.642c0-16.345-13.297-29.642-29.642-29.642s-29.642,13.297-29.642,29.642
	C118.568,326.24,131.865,339.537,148.21,339.537z M148.21,296.421c7.43,0,13.474,6.044,13.474,13.474s-6.044,13.474-13.474,13.474
	s-13.474-6.044-13.474-13.474S140.78,296.421,148.21,296.421z M191.326,32.337c4.465,0,8.084,3.62,8.084,8.084v1.078
	c0,4.465-3.62,8.084-8.084,8.084c-4.465,0-8.084-3.62-8.084-8.084v-1.078C183.242,35.956,186.861,32.337,191.326,32.337z
	 M427.864,287.085l-52.045-52.045c-5.599-5.599-13.043-8.682-20.96-8.682h-26.102v-54.434c0-0.18-0.005-0.358-0.017-0.534
	c3.191-8.096,5.067-16.848,5.365-25.992c15.107-1.346,26.989-14.074,26.989-29.525V29.642C361.094,13.297,347.797,0,331.452,0
	h-53.895c-4.465,0-8.084,3.62-8.084,8.084s3.62,8.084,8.084,8.084h53.895c7.43,0,13.474,6.044,13.474,13.474v86.232
	c0,6.915-5.235,12.63-11.951,13.389c-4.142-23.719-19.031-44.381-40.902-55.781c-3.958-2.063-8.842-0.527-10.905,3.433
	c-2.064,3.959-0.527,8.842,3.433,10.905c20.588,10.732,33.377,31.807,33.377,55.002c0,34.176-27.803,61.979-61.979,61.979
	c-4.465,0-8.084,3.62-8.084,8.084c0,4.465,3.62,8.084,8.084,8.084c22.242,0,42.345-9.341,56.589-24.305V256
	c0,1.485-1.209,2.695-2.695,2.695h-21.558c-5.289-12.649-17.792-21.558-32.337-21.558c-14.545,0-27.048,8.909-32.337,21.558h-21.558
	c-1.485,0-2.695-1.209-2.695-2.695v-59.237c5.843,6.119,12.737,11.344,20.517,15.398c3.961,2.065,8.842,0.526,10.905-3.433
	c2.064-3.959,0.527-8.842-3.433-10.905c-20.588-10.73-33.378-31.805-33.378-55.002c0-34.176,27.803-61.979,61.979-61.979
	c4.465,0,8.084-3.62,8.084-8.084s-3.62-8.084-8.084-8.084c-38.467,0-70.532,27.938-76.97,64.589
	c-6.717-0.756-11.956-6.472-11.956-13.389V29.642c0-7.43,6.044-13.474,13.474-13.474h53.895c4.465,0,8.084-3.62,8.084-8.084
	S238.906,0,234.442,0h-53.895c-16.345,0-29.642,13.297-29.642,29.642v86.232c0,15.451,11.883,28.178,26.989,29.525
	c0.295,9.086,2.146,17.88,5.36,26.067c-0.009,0.152-0.013,0.305-0.013,0.459v54.434h-26.102c-7.918,0-15.361,3.083-20.96,8.682
	l-52.045,52.045c-5.6,5.599-8.682,13.041-8.682,20.96v23.408c0,4.465,3.62,8.084,8.084,8.084s8.084-3.62,8.084-8.084v-23.406
	c0-3.599,1.401-6.983,3.946-9.527l52.045-52.045c2.545-2.545,5.928-3.946,9.528-3.946h26.102v13.474
	c0,7.51,4.411,14.009,10.779,17.042v59.778c-13.405,9.544-21.558,25.137-21.558,41.749V424c0,5.038,1.962,9.775,5.524,13.338
	l36.803,36.804c0.509,0.509,0.789,1.185,0.789,1.905v19.786h-79.997c-3.599,0-6.983-1.401-9.528-3.946l-30.487-30.487
	c-2.545-2.545-3.946-5.928-3.946-9.527v-88.081c0-4.465-3.62-8.084-8.084-8.084s-8.084,3.62-8.084,8.084v88.081
	c0,7.918,3.083,15.361,8.682,20.96l30.487,30.487c5.599,5.599,13.043,8.682,20.96,8.682h88.081c4.465,0,8.084-3.62,8.084-8.084
	v-27.872c0-5.039-1.963-9.776-5.525-13.338l-36.801-36.803c-0.509-0.509-0.789-1.186-0.789-1.906v-49.429
	c0-8.313,2.985-16.254,8.177-22.476c3.323,5.397,9.286,9.003,16.076,9.003h86.232c6.79,0,12.753-3.606,16.076-9.003
	c5.192,6.222,8.177,14.162,8.177,22.476v49.43c0,0.719-0.28,1.396-0.789,1.906l-36.801,36.803c-3.562,3.562-5.524,8.3-5.524,13.338
	v27.871c0,4.465,3.62,8.084,8.084,8.084h88.081c7.918,0,15.361-3.083,20.96-8.682l30.487-30.487
	c5.599-5.599,8.682-13.043,8.682-20.96V308.045C436.547,300.127,433.464,292.684,427.864,287.085z M255.999,253.305
	c10.401,0,18.863,8.463,18.863,18.863s-8.463,18.863-18.863,18.863s-18.863-8.463-18.863-18.863
	C237.136,261.768,245.599,253.305,255.999,253.305z M301.81,342.232c0,1.485-1.209,2.695-2.695,2.695h-86.232
	c-1.485,0-2.695-1.209-2.695-2.695v-4.87c0.001-0.098,0.001-0.197,0-0.295v-62.203h10.881c1.381,18.062,16.519,32.337,34.929,32.337
	s33.548-14.275,34.929-32.337h10.881V342.232z M420.378,451.871c0,3.599-1.401,6.983-3.946,9.527l-30.487,30.487
	c-2.545,2.545-5.928,3.946-9.527,3.946h-79.997v-19.788c0-0.72,0.28-1.396,0.789-1.906l36.801-36.801
	c3.564-3.562,5.525-8.3,5.525-13.339v-49.429c0-16.614-8.153-32.205-21.558-41.749v-59.778c6.368-3.032,10.779-9.532,10.779-17.042
	v-13.474h26.102c3.599,0,6.983,1.401,9.527,3.946l52.045,52.045c2.545,2.545,3.946,5.928,3.946,9.527V451.871z M363.789,280.253
	c-16.345,0-29.642,13.297-29.642,29.642c0,16.345,13.297,29.642,29.642,29.642c16.345,0,29.642-13.297,29.642-29.642
	C393.431,293.55,380.134,280.253,363.789,280.253z M363.789,323.368c-7.43,0-13.474-6.044-13.474-13.474s6.044-13.474,13.474-13.474
	s13.474,6.044,13.474,13.474S371.219,323.368,363.789,323.368z"/>
<g>
</g>
<g>
</g>
<g>
</g>
<g>
</g>
<g>
</g>
<g>
</g>
<g>
</g>
<g>
</g>
<g>
</g>
<g>
</g>
<g>
</g>
<g>
</g>
<g>
</g>
<g>
</g>
<g>
</g>
</svg>
