<?xml version="1.0" encoding="iso-8859-1"?>
<!-- Generator: Adobe Illustrator 19.0.0, SVG Export Plug-In . SVG Version: 6.00 Build 0)  -->
<svg version="1.1" id="Layer_1" xmlns="http://www.w3.org/2000/svg" xmlns:xlink="http://www.w3.org/1999/xlink" x="0px" y="0px"
	 viewBox="0 0 511.993 511.993" style="enable-background:new 0 0 511.993 511.993;" xml:space="preserve">
<circle style="fill:#6DD7A7;" cx="255.996" cy="255.996" r="255.996"/>
<path style="fill:#00BB64;" d="M499.121,336.345l-183.61-183.61h-10.479L249.589,97.39c-2.986-3.46-6.443-6.505-10.36-9.071
	c-15.373-10.065-36.679-12.119-59.158-6.152l-5.697-6.183l-13.136,4.476L145.3,63.942l-9.244,18.801l-19.831-6.757l6.757,19.831
	l-18.801,9.244l16.52,15.938l-4.476,13.136l63.745,54.92c-38.864,25.031-64.612,68.668-64.612,118.331
	c0,40.15,16.822,76.368,43.799,101.999l102.544,102.543C372.531,509.505,465.99,436.652,499.121,336.345z"/>
<path style="fill:#FFFFFF;" d="M262.861,166.713h-13.66v-30.101c0-16.639-6.035-29.386-17.456-36.865
	c-15.299-10.017-38.851-9.712-63,0.82l-5.462-12.521c28.389-12.381,56.778-12.277,75.945,0.273
	c15.24,9.98,23.632,27.13,23.632,48.292V166.713z"/>
<path style="fill:#D8D8DA;" d="M262.861,136.612c0-11.213-2.378-21.283-6.862-29.774v59.875h6.862V136.612z"/>
<path style="fill:#3C3B41;" d="M315.511,179.881v-27.146H196.552v27.146c-47.959,22.411-81.194,71.073-81.194,127.505
	c0,77.691,62.981,140.673,140.673,140.673s140.673-62.981,140.673-140.673C396.704,250.954,363.47,202.291,315.511,179.881z"/>
<path style="fill:#29292B;" d="M315.511,179.881v-27.146h-59.51v295.324c0.01,0,0.021,0,0.031,0
	c77.691,0,140.673-62.981,140.673-140.673C396.704,250.954,363.47,202.291,315.511,179.881z"/>
<polygon style="fill:#FFE670;" points="145.299,63.942 154.543,82.742 174.374,75.985 167.617,95.816 186.418,105.059 
	167.617,114.303 174.374,134.134 154.543,127.376 145.299,146.177 136.056,127.376 116.225,134.134 122.983,114.303 
	104.182,105.059 122.983,95.816 116.225,75.985 136.056,82.742 "/>
<polygon style="fill:#FFCF00;" points="186.418,105.059 167.617,95.816 174.374,75.985 154.543,82.742 145.299,63.942 
	145.299,146.177 154.543,127.376 174.374,134.134 167.617,114.303 "/>
<g>
</g>
<g>
</g>
<g>
</g>
<g>
</g>
<g>
</g>
<g>
</g>
<g>
</g>
<g>
</g>
<g>
</g>
<g>
</g>
<g>
</g>
<g>
</g>
<g>
</g>
<g>
</g>
<g>
</g>
</svg>
