<?xml version="1.0" encoding="iso-8859-1"?>
<!-- Generator: Adobe Illustrator 19.0.0, SVG Export Plug-In . SVG Version: 6.00 Build 0)  -->
<svg version="1.1" id="Layer_1" xmlns="http://www.w3.org/2000/svg" xmlns:xlink="http://www.w3.org/1999/xlink" x="0px" y="0px"
	 viewBox="0 0 512 512" style="enable-background:new 0 0 512 512;" xml:space="preserve">
<circle style="fill:#FD8469;" cx="256" cy="256" r="256"/>
<path style="fill:#FC6F58;" d="M224.349,102.262l-20.928-20.928l-8.62,28.444l12.803,12.803l-3.56,2.35l-13.315-13.469l-6.094,6.094
	l12.16,12.16l-1.133,0.748l73.525,73.525l-0.61,0.898l-85.628-85.628l-28.444,8.62L177.626,151l-7.009,9.531l115.212,115.214
	L173.909,396.048l114.436,113.926c91.941-11.593,168.696-71.944,203.542-154.338L233.698,97.447L224.349,102.262z"/>
<g>
	
		<rect x="216.277" y="90.218" transform="matrix(-0.7071 -0.7071 0.7071 -0.7071 302.7132 334.2679)" style="fill:#FFD15D;" width="8.618" height="28.444"/>
	
		<rect x="173.318" y="133.207" transform="matrix(-0.7071 -0.7071 0.7071 -0.7071 198.9801 377.2798)" style="fill:#FFD15D;" width="8.618" height="28.446"/>
	
		<rect x="206.368" y="143.105" transform="matrix(-0.7071 -0.7071 0.7071 -0.7071 272.3349 407.633)" style="fill:#FFD15D;" width="28.446" height="8.618"/>
	
		<rect x="163.421" y="100.147" transform="matrix(-0.7071 -0.7071 0.7071 -0.7071 229.3941 303.9294)" style="fill:#FFD15D;" width="28.444" height="8.618"/>
	<rect x="154.496" y="119.26" style="fill:#FFD15D;" width="28.444" height="8.62"/>
</g>
<path style="fill:#E6F3FF;" d="M261.172,191.664h-12.067v-36.445c0-13.648-11.104-24.752-24.752-24.752h-28.689V118.4h28.689
	c20.302,0,36.819,16.518,36.819,36.819V191.664z"/>
<path style="fill:#324A5E;" d="M286.834,205.615v-27.553h-61.668v27.553c-48.331,13.471-83.806,57.784-83.806,110.411
	c0,63.314,51.326,114.64,114.64,114.64s114.64-51.326,114.64-114.64C370.64,263.399,335.165,219.086,286.834,205.615z"/>
<path style="fill:#2B3B4E;" d="M370.64,316.026c0-52.627-35.475-96.939-83.806-110.409v-27.553H256v252.602
	C319.314,430.666,370.64,379.339,370.64,316.026z"/>
<g>
	<rect x="194.801" y="81.334" style="fill:#FFD15D;" width="8.62" height="28.444"/>
	<rect x="194.801" y="142.102" style="fill:#FFD15D;" width="8.62" height="28.444"/>
</g>
<g>
</g>
<g>
</g>
<g>
</g>
<g>
</g>
<g>
</g>
<g>
</g>
<g>
</g>
<g>
</g>
<g>
</g>
<g>
</g>
<g>
</g>
<g>
</g>
<g>
</g>
<g>
</g>
<g>
</g>
</svg>
