<?xml version="1.0" encoding="iso-8859-1"?>
<!-- Generator: Adobe Illustrator 19.0.0, SVG Export Plug-In . SVG Version: 6.00 Build 0)  -->
<svg version="1.1" id="Layer_1" xmlns="http://www.w3.org/2000/svg" xmlns:xlink="http://www.w3.org/1999/xlink" x="0px" y="0px"
	 viewBox="0 0 512.001 512.001" style="enable-background:new 0 0 512.001 512.001;" xml:space="preserve">
<path style="fill:#8C561F;" d="M417.345,340.931h-66.218L265.593,454.64c-2.265,3.001-5.82,4.765-9.594,4.765
	c-3.775,0-7.331-1.764-9.594-4.765l-85.531-113.709h-66.22c-8.316,0-15.125,6.802-15.125,15.114v143.08
	c0,2.771,2.27,5.039,5.043,5.039h342.857c2.771,0,5.041-2.267,5.041-5.039v-143.08C432.47,347.734,425.665,340.931,417.345,340.931z
	"/>
<g style="opacity:0.1;">
	<path d="M110.51,499.125V356.046c0-8.312,6.809-15.114,15.127-15.114H94.653c-8.316,0-15.125,6.802-15.125,15.114v143.08
		c0,2.771,2.27,5.039,5.043,5.039h30.981C112.782,504.163,110.51,501.896,110.51,499.125z"/>
</g>
<path style="fill:#FFFBCA;" d="M265.594,454.639c-2.265,3.001-5.82,4.765-9.594,4.765c-3.775,0-7.331-1.764-9.594-4.765
	l-52.84-70.246v119.77h124.869v-119.77L265.594,454.639z"/>
<path style="fill:#971311;" d="M344.429,274.645v31.258c0,8.703-7.122,15.823-15.828,15.823h-13.209v16.02
	c0,3.938-3.225,7.13-7.205,7.13H203.814c-3.978,0-7.205-3.192-7.205-7.13v-16.02H183.4c-8.706,0-15.83-7.12-15.83-15.823v-31.257
	c-12.276,6.8-20.579,19.788-20.579,34.701c0,8.489,2.696,16.35,7.278,22.806l92.137,122.488c2.263,3.001,5.818,4.765,9.594,4.765
	c3.773,0,7.329-1.764,9.594-4.765l92.137-122.488c4.582-6.456,7.28-14.317,7.28-22.806
	C365.01,294.432,356.706,281.445,344.429,274.645z"/>
<path style="fill:#E2D779;" d="M265.594,454.639c-2.265,3.001-5.82,4.765-9.594,4.765c-3.775,0-7.331-1.764-9.594-4.765
	l-28.276-37.59v87.113h75.738v-87.113L265.594,454.639z"/>
<g style="opacity:0.1;">
	<polygon points="218.131,417.05 218.131,504.163 239.045,504.163 239.045,444.854 	"/>
</g>
<path style="fill:#E02424;" d="M344.429,274.645v31.258c0,8.703-7.122,15.823-15.828,15.823h-13.209v16.02
	c0,3.938-3.225,7.13-7.205,7.13h-80.654l55.385,73.629c1.645,2.18,3.976,3.695,6.571,4.368l68.241-90.72
	c4.582-6.456,7.28-14.317,7.28-22.806C365.01,294.432,356.706,281.445,344.429,274.645z"/>
<path style="opacity:0.1;enable-background:new    ;" d="M181.991,321.654c-8.051-0.72-14.42-7.524-14.42-15.751v-31.257
	c-12.276,6.8-20.579,19.788-20.579,34.701c0,8.489,2.696,16.35,7.278,22.806l92.137,122.488c2.263,3.001,5.818,4.765,9.594,4.765
	c3.773,0,7.329-1.764,9.594-4.765l6.92-9.199l-85.217-113.288C185.036,328.964,183.235,325.433,181.991,321.654z"/>
<path style="fill:#FFD6BB;" d="M167.571,183.948c1.565,0.213-16.455-2.36-26.983-4.238c-1.593,1.849-2.567,4.246-2.567,6.865v44.63
	c0,5.802,4.749,10.549,10.553,10.549h18.998v-57.806H167.571z"/>
<path style="opacity:0.1;enable-background:new    ;" d="M152.583,231.204v-44.63c0-1.674,0.406-3.255,1.109-4.664
	c-4.374-0.689-8.742-1.422-13.104-2.199c-1.593,1.849-2.567,4.246-2.567,6.865v44.63c0,5.802,4.749,10.549,10.553,10.549h14.564
	C157.332,241.753,152.583,237.006,152.583,231.204z"/>
<g>
	<path style="fill:#FFD6BB;" d="M370.264,179.913c-10.77,1.901-28.024,4.332-25.835,4.034v57.806H362.1
		c5.804,0,10.553-4.747,10.553-10.549v-44.63C372.653,184.052,371.755,181.732,370.264,179.913z"/>
	<path style="fill:#FFD6BB;" d="M167.571,183.948v121.955c0,8.703,7.124,15.823,15.83,15.823h13.209v-0.239
		c0-32.411,26.643-58.78,59.39-58.78c32.751,0,59.392,26.369,59.392,58.78v0.239H328.6c8.706,0,15.828-7.12,15.828-15.823V183.947
		C285.748,191.913,226.252,191.913,167.571,183.948z"/>
</g>
<path style="opacity:0.1;enable-background:new    ;" d="M189.518,305.903V186.549c-7.327-0.744-14.643-1.609-21.947-2.601v121.955
	c0,8.703,7.124,15.823,15.83,15.823h13.209v-0.239c0-0.797,0.028-1.587,0.062-2.376
	C192.374,316.274,189.518,311.408,189.518,305.903z"/>
<path style="fill:#FFFFFF;" d="M455.296,147.417c1.9,5.763-1.676,12.159-7.98,14.074c-124.706,37.941-257.929,37.941-382.634,0
	c-6.298-1.914-9.877-8.31-7.978-14.074c1.242-3.815,2.486-7.631,3.726-11.445c1.9-5.766,8.284-8.901,14.22-7.098
	c118.208,35.963,244.489,35.963,362.698,0c5.935-1.805,12.32,1.332,14.22,7.098C452.813,139.786,454.053,143.602,455.296,147.417z"
	/>
<path style="fill:#A86D33;" d="M332.745,38.348h-0.647c-3.259-17.361-18.635-30.511-37.12-30.511
	c-18.487,0-33.861,13.149-37.12,30.511h-3.715c-3.257-17.361-18.631-30.511-37.118-30.511c-18.485,0-33.863,13.149-37.122,30.511
	h-0.645L146.83,178.335h218.345L332.745,38.348z"/>
<polygon style="fill:#E02424;" points="353.723,128.901 158.28,128.901 146.829,178.334 365.174,178.334 "/>
<g style="opacity:0.1;">
	<path d="M213.096,38.348c2.208-11.768,9.988-21.593,20.525-26.708c-5.011-2.431-10.639-3.803-16.597-3.803
		c-18.485,0-33.863,13.149-37.122,30.511h-0.645l-32.428,139.987h33.192l32.429-139.987H213.096z"/>
</g>
<path style="fill:#D69363;" d="M203.815,344.876c-3.978,0-7.205-3.192-7.205-7.13v-16.259c0-32.411,26.643-58.78,59.39-58.78
	c32.751,0,59.392,26.369,59.392,58.78v16.259c0,3.938-3.225,7.13-7.205,7.13H203.815z"/>
<g style="opacity:0.1;">
	<path d="M218.476,337.745v-16.259c0-28.714,20.915-52.669,48.457-57.764c-3.547-0.656-7.196-1.016-10.933-1.016
		c-32.747,0-59.39,26.369-59.39,58.78v16.259c0,3.938,3.227,7.13,7.205,7.13h21.863C221.7,344.876,218.476,341.684,218.476,337.745z
		"/>
</g>
<path style="fill:#FEBE2D;" d="M391.163,455.774c-0.776,0-1.537-0.151-2.251-0.45l-13.641-5.67c-0.271-0.113-0.555-0.17-0.842-0.17
	c-0.286,0-0.576,0.057-0.844,0.17l-13.64,5.669c-0.719,0.3-1.471,0.451-2.254,0.451c-1.239,0-2.423-0.379-3.423-1.098
	c-1.636-1.176-2.548-3.142-2.38-5.13l1.243-14.569c0.053-0.579-0.136-1.151-0.522-1.59l-9.673-11.061
	c-1.321-1.513-1.754-3.632-1.132-5.532c0.628-1.903,2.242-3.368,4.211-3.821l14.409-3.333c0.568-0.131,1.062-0.485,1.365-0.98
	l7.655-12.507c1.049-1.71,2.959-2.773,4.985-2.773c2.025,0,3.932,1.063,4.983,2.775l7.656,12.506
	c0.301,0.496,0.795,0.849,1.365,0.98l14.408,3.332c1.971,0.455,3.584,1.919,4.213,3.823c0.626,1.899,0.19,4.018-1.135,5.531
	l-9.671,11.061c-0.38,0.439-0.575,1.011-0.52,1.59l1.238,14.569c0.176,1.988-0.739,3.954-2.375,5.129
	C393.587,455.395,392.405,455.774,391.163,455.774z"/>
<path style="fill:#8C561F;" d="M455.296,147.417c1.9,5.763-1.676,12.159-7.98,14.074c-124.706,37.941-257.929,37.941-382.634,0
	c-6.298-1.914-9.877-8.31-7.978-14.074c1.242-3.815,2.486-7.631,3.726-11.445c1.9-5.766,8.284-8.901,14.22-7.098
	c118.208,35.963,244.489,35.963,362.698,0c5.935-1.805,12.32,1.332,14.22,7.098C452.813,139.786,454.053,143.602,455.296,147.417z"
	/>
<path d="M414.494,414.332c-1.484-4.486-5.275-7.934-9.888-8.998l-12.097-2.798l-6.42-10.486c-2.465-4.017-6.934-6.512-11.661-6.512
	c-4.732,0-9.203,2.496-11.67,6.519l-6.414,10.479l-12.089,2.797c-4.623,1.065-8.414,4.514-9.899,9.019
	c-1.479,4.511-0.455,9.54,2.679,13.13l8.079,9.24l-1.038,12.162c-0.399,4.723,1.753,9.381,5.613,12.153
	c2.341,1.683,5.107,2.574,8,2.574c1.82,0,3.594-0.355,5.261-1.051l11.476-4.769l11.458,4.763c1.677,0.702,3.453,1.058,5.277,1.058
	c2.891,0,5.657-0.889,7.999-2.57c3.879-2.785,6.027-7.453,5.612-12.158l-1.032-12.161l8.075-9.237
	C414.957,423.895,415.985,418.859,414.494,414.332z M390.326,428.253c-1.776,2.05-2.652,4.766-2.406,7.385l0.949,11.18l-10.57-4.394
	c-2.477-1.038-5.334-1.016-7.721-0.008l-10.593,4.402l0.949-11.128c0.248-2.709-0.643-5.438-2.427-7.465l-7.347-8.403l11.027-2.551
	c2.604-0.601,4.897-2.252,6.287-4.526l5.954-9.729l5.941,9.705c1.39,2.289,3.687,3.949,6.297,4.549l11.03,2.551L390.326,428.253z"/>
<path d="M269.973,298.151h-27.947c-4.329,0-7.837,3.509-7.837,7.837c0,4.328,3.508,7.837,7.837,7.837h27.947
	c4.329,0,7.837-3.509,7.837-7.837C277.81,301.66,274.302,298.151,269.973,298.151z"/>
<path d="M212.27,203.338c-4.329,0-7.837,3.509-7.837,7.837v15.195c0,4.328,3.508,7.837,7.837,7.837c4.329,0,7.837-3.509,7.837-7.837
	v-15.195C220.107,206.846,216.598,203.338,212.27,203.338z"/>
<path d="M307.57,226.37v-15.195c0-4.328-3.508-7.837-7.837-7.837c-4.329,0-7.837,3.509-7.837,7.837v15.195
	c0,4.328,3.508,7.837,7.837,7.837C304.062,234.207,307.57,230.698,307.57,226.37z"/>
<path d="M462.747,144.989l-3.734-11.471c-2.56-7.77-9.893-12.991-18.246-12.991c-1.93,0-3.846,0.285-5.698,0.848
	c-23.383,7.114-47.119,12.791-71.091,17.065l-14.81-63.932c-0.977-4.217-5.188-6.843-9.403-5.866
	c-4.216,0.977-6.843,5.187-5.866,9.403l4.238,18.295h-0.978c-4.329,0-7.837,3.509-7.837,7.837c0,4.328,3.508,7.837,7.837,7.837h4.61
	l2.096,9.049H168.141l2.096-9.049h4.604c4.329,0,7.837-3.509,7.837-7.837s-3.508-7.837-7.837-7.837h-0.974l12.363-53.37
	c0.673-0.92,1.153-1.997,1.373-3.178c2.625-13.976,14.998-24.119,29.421-24.119c14.423,0,26.794,10.144,29.416,24.119
	c0.695,3.706,3.932,6.392,7.702,6.392h3.715c3.77,0,7.006-2.685,7.702-6.391c2.624-13.977,14.996-24.12,29.419-24.12
	s26.795,10.144,29.418,24.119c0.222,1.183,0.703,2.261,1.376,3.182l1.832,7.904c0.978,4.217,5.191,6.842,9.404,5.866
	c4.216-0.977,6.842-5.187,5.865-9.404l-2.494-10.762c-0.242-1.046-0.688-2.003-1.288-2.831C333.898,14.01,315.841,0,294.978,0
	c-16.308,0-30.902,8.561-38.977,21.726C247.927,8.56,233.333,0,217.024,0c-20.866,0-38.926,14.012-44.117,33.752
	c-0.599,0.828-1.044,1.783-1.285,2.827l-23.597,101.863c-23.974-4.275-47.712-9.952-71.096-17.066
	c-1.851-0.562-3.768-0.848-5.697-0.848c-8.352,0-15.685,5.221-18.254,13.019l-3.718,11.416c-1.542,4.676-1.112,9.714,1.209,14.188
	c2.43,4.685,6.78,8.271,11.931,9.837c22.333,6.795,44.965,12.375,67.808,16.775c-0.012,0.27-0.025,0.539-0.025,0.812v44.63
	c0,10.138,8.251,18.386,18.39,18.386h11.162v20.743c-12.428,8.606-20.579,22.878-20.579,39.013c0,8.415,2.211,16.542,6.416,23.748
	H94.653c-12.661,0-22.962,10.296-22.962,22.951v143.08c0,7.099,5.777,12.875,12.879,12.875h49.176c4.329,0,7.837-3.509,7.837-7.837
	c0-4.328-3.508-7.837-7.837-7.837H87.365V356.046c0-4.012,3.269-7.278,7.288-7.278h62.309l28.766,38.243v109.315h-23.77
	c-4.329,0-7.837,3.509-7.837,7.837s3.508,7.837,7.837,7.837h265.471c7.101,0,12.877-5.775,12.877-12.875v-72.806
	c0-4.328-3.508-7.837-7.837-7.837c-4.329,0-7.837,3.509-7.837,7.837v70.008h-98.361V387.01l28.766-38.243h62.307
	c4.019,0,7.288,3.264,7.288,7.278v42.061c0,4.328,3.508,7.837,7.837,7.837c4.329,0,7.837-3.509,7.837-7.837v-42.06
	c0-12.655-10.3-22.951-22.962-22.951H366.43c4.205-7.208,6.418-15.335,6.418-23.748c0-16.136-8.152-30.41-20.581-39.015v-20.742
	h9.835c10.14,0,18.39-8.247,18.39-18.386v-44.63c0-0.186-0.011-0.369-0.017-0.553c23.288-4.438,46.359-10.107,69.119-17.032
	c5.154-1.564,9.505-5.149,11.937-9.836C463.851,154.68,464.28,149.64,462.747,144.989z M164.51,136.737h182.985l0.99,4.274
	c-30.553,4.645-61.455,6.999-92.484,6.999c-31.028,0-61.929-2.353-92.481-6.999L164.51,136.737z M148.574,233.916
	c-1.472,0-2.717-1.241-2.717-2.713v-42.597c4.617,0.775,9.245,1.491,13.877,2.168v43.142H148.574z M201.402,496.327v-88.479
	l8.892,11.821v76.658H201.402z M225.967,496.327v-55.822l14.181,18.854c3.723,4.936,9.648,7.883,15.851,7.883
	c6.199,0,12.125-2.946,15.857-7.891l14.175-18.846v55.822H225.967z M310.598,496.327h-8.892v-76.658l8.892-11.821V496.327z
	 M357.173,309.346c0,6.54-1.996,12.826-5.774,18.186l-63.552,84.487l-25.799-34.297c-2.601-3.46-7.514-4.155-10.974-1.552
	c-3.458,2.602-4.153,7.515-1.551,10.974l28.842,37.478l-19.028,25.295c-0.78,1.032-2.027,1.65-3.338,1.65
	c-1.312,0-2.559-0.615-3.331-1.638l-92.067-122.396c-3.776-5.358-5.772-11.644-5.772-18.186c0-6.187,1.806-11.96,4.906-16.855
	v13.411c0,13.046,10.617,23.66,23.667,23.66h5.372v8.184c0,8.253,6.747,14.967,15.041,14.967h19.808l10.18,13.534
	c1.54,2.048,3.889,3.126,6.268,3.126c1.639,0,3.294-0.513,4.705-1.575c3.459-2.602,4.153-7.515,1.551-10.974l-3.094-4.113h64.954
	c8.294,0,15.041-6.715,15.041-14.967v-8.184h5.372c13.049,0,23.665-10.614,23.665-23.66v-13.414
	C355.368,297.383,357.173,303.157,357.173,309.346z M301.888,298.282c3.761,7.225,5.668,15.033,5.668,23.205v15.552H204.447v-15.552
	c0-28.09,23.127-50.943,51.553-50.943c10.813,0,21.17,3.286,29.949,9.502c3.536,2.503,8.423,1.664,10.924-1.868
	c2.5-3.532,1.665-8.423-1.867-10.924c-9.3-6.584-19.951-10.645-31.169-11.936v-35.89c0-4.328-3.508-7.837-7.837-7.837
	s-7.837,3.509-7.837,7.837v35.911c-30.869,3.57-55.414,27.935-58.94,58.55h-5.821c-4.408,0-7.993-3.583-7.993-7.986V192.861
	c26.692,3.256,53.595,4.921,80.591,4.921s53.9-1.666,80.593-4.921v113.042c0,4.403-3.585,7.986-7.991,7.986h-5.817
	c-0.928-7.961-3.297-15.742-6.992-22.845c-1.998-3.84-6.729-5.331-10.569-3.333C301.382,289.71,299.889,294.442,301.888,298.282z
	 M364.817,231.204c0,1.47-1.243,2.713-2.717,2.713h-9.835v-43.142c4.19-0.613,8.374-1.263,12.551-1.955V231.204z M447.619,151.933
	c-0.5,0.961-1.44,1.712-2.583,2.059c-61.323,18.657-124.924,28.116-189.037,28.116S128.284,172.65,66.96,153.992
	c-1.139-0.347-2.078-1.097-2.578-2.061c-0.256-0.492-0.504-1.249-0.228-2.088l3.719-11.42c0.432-1.308,1.812-2.222,3.359-2.222
	c0.383,0,0.767,0.057,1.138,0.17c59.568,18.123,121.35,27.312,183.629,27.312s124.062-9.189,183.628-27.312
	c1.867-0.572,3.961,0.425,4.49,2.028l3.734,11.471C448.121,150.685,447.873,151.441,447.619,151.933z"/>
<path d="M209.809,96.342h-13.032c-4.329,0-7.837,3.509-7.837,7.837s3.508,7.837,7.837,7.837h13.032c4.329,0,7.837-3.509,7.837-7.837
	C217.646,99.85,214.138,96.342,209.809,96.342z"/>
<path d="M231.527,96.342c-4.329,0-7.837,3.509-7.837,7.837s3.508,7.837,7.837,7.837h13.032c4.329,0,7.837-3.509,7.837-7.837
	s-3.508-7.837-7.837-7.837H231.527z"/>
<path d="M301.029,96.342c-4.329,0-7.837,3.509-7.837,7.837s3.508,7.837,7.837,7.837h13.032c4.329,0,7.837-3.509,7.837-7.837
	s-3.508-7.837-7.837-7.837H301.029z"/>
<path d="M266.279,96.342c-4.329,0-7.837,3.509-7.837,7.837s3.508,7.837,7.837,7.837h13.031c4.329,0,7.837-3.509,7.837-7.837
	s-3.508-7.837-7.837-7.837H266.279z"/>
<g>
</g>
<g>
</g>
<g>
</g>
<g>
</g>
<g>
</g>
<g>
</g>
<g>
</g>
<g>
</g>
<g>
</g>
<g>
</g>
<g>
</g>
<g>
</g>
<g>
</g>
<g>
</g>
<g>
</g>
</svg>
