<?xml version="1.0" encoding="iso-8859-1"?>
<!-- Generator: Adobe Illustrator 19.0.0, SVG Export Plug-In . SVG Version: 6.00 Build 0)  -->
<svg version="1.1" id="Layer_1" xmlns="http://www.w3.org/2000/svg" xmlns:xlink="http://www.w3.org/1999/xlink" x="0px" y="0px"
	 viewBox="0 0 512 512" style="enable-background:new 0 0 512 512;" xml:space="preserve">
	 
<path style="fill:#395087;" d="M318.544,218.269v-30.635c0-14.584-11.823-26.408-26.408-26.408h-72.274
	c-14.584,0-26.408,11.823-26.408,26.408v30.635c-50.784,23.61-85.999,75.07-85.999,134.762c0,82.039,66.505,148.544,148.544,148.544
	s148.544-66.505,148.544-148.544C404.543,293.339,369.328,241.879,318.544,218.269z"/>
<g>
	<path style="fill:#231F20;" d="M389.325,266.433c-15.11-23.212-35.884-42-60.356-54.658v-24.14
		c0-20.308-16.523-36.832-36.832-36.832h-32.096c0.964-1.127,2.1-2.313,3.42-3.666c5.649-5.792,13.387-13.721,13.387-28.649
		S269.11,95.63,263.462,89.84c-5.04-5.165-7.462-7.922-7.462-14.09c0-5.756-4.667-10.424-10.424-10.424
		c-5.757,0-10.424,4.668-10.424,10.424c0,14.927,7.737,22.858,13.387,28.649c5.039,5.165,7.462,7.922,7.462,14.09
		s-2.423,8.925-7.462,14.09c-4.16,4.265-9.443,9.701-11.944,18.225h-16.732c-20.309,0-36.832,16.523-36.832,36.832v24.14
		c-24.473,12.658-45.247,31.446-60.356,54.658c-16.777,25.774-25.643,55.718-25.643,86.599C97.032,440.687,168.344,512,256,512
		s158.968-71.313,158.968-158.968C414.967,322.151,406.101,292.206,389.325,266.433z M255.999,491.152
		c-76.16,0-138.12-61.96-138.12-138.12c0-53.537,31.39-102.725,79.97-125.31c3.678-1.711,6.029-5.398,6.029-9.453v-30.635
		c0-8.814,7.17-15.983,15.983-15.983h72.274c8.814,0,15.983,7.17,15.983,15.983v20.21h-28.145c-5.756,0-10.424,4.668-10.424,10.424
		s4.668,10.424,10.424,10.424h36.168c47.437,22.994,77.977,71.541,77.977,124.338C394.119,429.192,332.159,491.152,255.999,491.152z
		"/>
	<path style="fill:#231F20;" d="M359.518,381.535c-5.375-2.066-11.405,0.615-13.471,5.989
		c-14.242,37.043-50.43,61.931-90.048,61.931c-5.757,0-10.424,4.668-10.424,10.424c0,5.756,4.667,10.424,10.424,10.424
		c24.155,0,47.368-7.318,67.133-21.16c19.302-13.52,33.955-32.24,42.374-54.138C367.573,389.632,364.892,383.602,359.518,381.535z"
		/>
	<path style="fill:#231F20;" d="M362.847,342.608c-5.756,0-10.424,4.668-10.424,10.424l-0.003,0.806
		c-0.058,5.756,4.562,10.471,10.318,10.528c0.035,0.001,0.071,0.001,0.107,0.001c5.708,0,10.364-4.598,10.421-10.319l0.005-1.016
		C373.271,347.275,368.604,342.608,362.847,342.608z"/>
	<path style="fill:#231F20;" d="M250.526,218.269c0-5.756-4.667-10.424-10.424-10.424h-1.042c-5.757,0-10.424,4.668-10.424,10.424
		s4.667,10.424,10.424,10.424h1.042C245.859,228.693,250.526,224.025,250.526,218.269z"/>
	<path style="fill:#231F20;" d="M245.575,45.519c5.757,0,10.424-4.668,10.424-10.424V10.424C255.999,4.668,251.332,0,245.575,0
		c-5.757,0-10.424,4.668-10.424,10.424v24.671C235.151,40.851,239.819,45.519,245.575,45.519z"/>
	<path style="fill:#231F20;" d="M287.271,62.198c2.669,0,5.335-1.018,7.371-3.053l21.131-21.131c4.071-4.071,4.071-10.671,0-14.743
		c-4.072-4.07-10.67-4.07-14.743,0l-21.131,21.131c-4.071,4.071-4.071,10.671,0,14.743
		C281.936,61.179,284.604,62.198,287.271,62.198z"/>
	<path style="fill:#231F20;" d="M196.507,59.145c2.036,2.035,4.703,3.053,7.371,3.053c2.668,0,5.336-1.018,7.371-3.053
		c4.071-4.071,4.071-10.671,0-14.743l-21.131-21.131c-4.071-4.07-10.671-4.07-14.743,0c-4.071,4.071-4.071,10.671,0,14.743
		L196.507,59.145z"/>
		
</g>
<g>
</g>
<g>
</g>
<g>
</g>
<g>
</g>
<g>
</g>
<g>
</g>
<g>
</g>
<g>
</g>
<g>
</g>
<g>
</g>
<g>
</g>
<g>
</g>
<g>
</g>
<g>
</g>
<g>
</g>

<filter id="pictureFilter" >
  <feColorMatrix type="saturate" values="50" />
</filter>
</svg>
